# xmcd CD database file
#
# Track frame offsets:
#	150
#	17623
#	36428
#	49811
#	64798
#	80816
#	95870
#	111651
#	122697
#	135097
#
# Disc length: 1962 seconds
#
# Revision: 0
# Processed by: cddbd v1.5.2PL0 Copyright (c) Steve Scherf et al.
# Submitted via: Feurio! 1.67 - http://www.feurio.com
#
DISCID=8c07a80a
DTITLE=Spencer Bohren - Born In A Biscayne
DYEAR=1984
DGENRE=Blues
TTITLE0=Straight Eight
TTITLE1=Shoppin' For Clothes
TTITLE2=Broke Down Engine
TTITLE3=Eloise
TTITLE4=In-Between Friends
TTITLE5=Born In A Biscayne
TTITLE6=Drop Down Mama
TTITLE7=Blues On The Ceiling
TTITLE8=Midnight Delta
TTITLE9=Snap Your Fingers
EXTD=
EXTT0=
EXTT1=
EXTT2=
EXTT3=
EXTT4=
EXTT5=
EXTT6=
EXTT7=
EXTT8=
EXTT9=
PLAYORDER=
